<svg width="213" height="35" viewBox="0 0 213 35" fill="none" xmlns="http://www.w3.org/2000/svg">
<path d="M7.67083 7.90417V12.7458H12.075V16.5083H7.67083V22.9833C7.67083 24.5875 8.51667 25.3167 9.975 25.3167H12.0458V29.1083H9.33333C5.57083 29.1083 3.12083 26.95 3.12083 23.1583V16.5083H0V12.7458H3.15V7.90417H7.67083Z" fill="#1C3FEA"/>
<path d="M30.0124 29.1375H25.4624V26.8625C24.5582 28.4375 22.7207 29.4 20.4749 29.4C16.7999 29.4 14.4082 26.6875 14.4082 22.9542V12.7458H18.929V21.9625C18.929 23.9459 20.2415 25.375 22.079 25.375C24.0624 25.375 25.4624 23.8 25.4624 21.7292V12.7458H30.0124V29.1375Z" fill="#1C3FEA"/>
<path d="M39.9871 7.90417V12.7458H44.3913V16.5083H39.9871V22.9833C39.9871 24.5875 40.8329 25.3167 42.2913 25.3167H44.3621V29.1083H41.6496C37.8871 29.1083 35.4371 26.95 35.4371 23.1583V16.5083H32.2871V12.7458H35.4371V7.90417H39.9871Z" fill="#1C3FEA"/>
<path d="M45.7334 20.9417C45.7334 16.0708 49.3501 12.4833 54.3959 12.4833C59.4417 12.4833 63.0584 16.0708 63.0584 20.9417C63.0584 25.8125 59.4417 29.4 54.3959 29.4C49.3501 29.4 45.7334 25.8125 45.7334 20.9417ZM58.4792 20.9417C58.4792 18.2 56.8167 16.3625 54.3959 16.3625C51.9459 16.3625 50.3126 18.2292 50.3126 20.9417C50.3126 23.6542 51.9751 25.4917 54.3959 25.4917C56.8167 25.4917 58.4792 23.625 58.4792 20.9417Z" fill="#1C3FEA"/>
<path d="M73.3246 16.5083C71.0788 16.5083 70.0871 18.375 70.0871 21.1458V29.1083H65.5371V12.7458H70.0871V15.4583C70.9621 13.4167 72.1871 12.7167 74.1704 12.7167H76.0371V16.4792H73.3246V16.5083Z" fill="#1C3FEA"/>
<path d="M82.8623 5.62918H78.0498V10.4125H82.8623V5.62918Z" fill="#26CB5E"/>
<path d="M82.717 12.7458H78.167V29.1375H82.717V12.7458Z" fill="#1C3FEA"/>
<path d="M100.012 18.5792V29.1083H95.5208V26.8333C94.9666 28.35 93.1583 29.3708 90.9124 29.3708C87.7333 29.3708 85.5458 27.2708 85.5458 24.4708C85.5458 21.2625 87.9374 19.3083 91.5249 19.3083H94.2958C95.1124 19.3083 95.5208 18.7833 95.5208 18.1125C95.5208 16.7417 94.4416 15.8083 92.6041 15.8083C90.6208 15.8083 89.5999 17.0333 89.5416 18.4042H85.5166C85.7208 15.1083 88.3749 12.4833 92.8666 12.4833C97.0083 12.4833 100.012 14.875 100.012 18.5792ZM95.5208 22.4V22.1667H92.1958C90.8249 22.1667 89.8624 23.0125 89.8624 24.2667C89.8624 25.3458 90.7666 26.075 92.0499 26.075C94.2666 26.1042 95.5208 24.4708 95.5208 22.4Z" fill="#1C3FEA"/>
<path d="M103.396 5.62918H107.916V29.1375H103.396V5.62918Z" fill="#1C3FEA"/>
<path d="M110.629 23.5959H114.537C114.712 25.0542 115.85 25.9584 117.541 25.9584C118.941 25.9584 119.904 25.2875 119.904 24.3542C119.904 21 111.096 24.2959 111.096 17.3834C111.096 14.4959 113.604 12.4542 116.958 12.4542C120.896 12.4542 123.55 14.5542 123.725 17.7917H119.787C119.583 16.3917 118.329 15.6334 117.075 15.6334C115.821 15.6334 114.916 16.1875 114.916 17.2375C114.916 20.5917 123.9 16.7709 123.9 24.2084C123.9 27.3292 121.362 29.3709 117.512 29.3709C113.516 29.3709 110.775 27.1542 110.629 23.5959Z" fill="#1C3FEA"/>
<path d="M209.183 11.8417V4.40417C209.183 1.75 207.404 0 204.633 0H200.491V0.0583333H140.904V0H136.704C133.991 0 132.154 1.75 132.154 4.40417V11.8417C132.154 14.2917 131.191 15.1958 128.741 15.1958V19.7458C131.191 19.7458 132.154 20.65 132.154 23.1V30.5375C132.154 33.1917 133.991 34.9417 136.704 34.9417H138.979V35H203.991V34.9417H204.604C207.345 34.9417 209.154 33.1917 209.154 30.5375V23.1C209.154 20.65 210.116 19.7458 212.595 19.7458V15.1958C210.145 15.1958 209.183 14.2917 209.183 11.8417ZM134.4 17.4708C134.429 17.4708 134.458 17.4708 134.458 17.4708V17.5C134.458 17.5 134.429 17.4708 134.4 17.4708Z" fill="#26CB5E"/>
<path d="M145.367 6.64999C149.917 6.64999 153.067 9.30416 153.067 13.3875C153.067 16.3042 151.375 18.55 147.962 20.2708L144.55 21.9917C143.5 22.5458 142.246 23.3333 142.246 24.3542H153.008V28.35H137.696L137.667 24.9375C137.667 21.6125 140.525 19.3958 142.508 18.4042L146.008 16.6542C147.583 15.925 148.458 14.8167 148.458 13.3875C148.458 11.5792 147.321 10.3833 145.396 10.3833C143.296 10.3833 142.187 12.075 142.246 14.525H137.608C137.55 9.62499 140.612 6.64999 145.367 6.64999Z" fill="white"/>
<path d="M164.208 24.1208H153.445V20.1542L163.887 6.88333H168.816V20.1542H171.324V24.0917H168.816V28.3208H164.208V24.1208ZM164.237 20.1542V12.5125L157.995 20.1833H164.237V20.1542Z" fill="white"/>
<path d="M183.167 28.35L179.871 23.5958L176.546 28.35H171.996L177.567 20.3L172.404 12.9208H177.071L179.9 17.0042L182.729 12.9208H187.425L182.263 20.3292L187.804 28.35H183.167Z" fill="white"/>
<path d="M194.308 17.7625L198.712 10.85H187.892V6.91251H203.787V10.5L198.333 19.0167C196.467 21.9042 195.942 24.5292 195.942 28.3208H191.333C191.333 24.3542 192.004 21.3792 194.308 17.7625Z" fill="white"/>
</svg>
