<svg width="36" height="36" viewBox="0 0 36 36" fill="none" xmlns="http://www.w3.org/2000/svg">
<g id="Technology Icons">
<path id="Vector" d="M3 3H33V33H3V3Z" fill="#F0DB4F"/>
<path id="Vector_2" d="M32.6597 27.2356C32.4401 25.8668 31.5475 24.7176 28.904 23.6453C27.9857 23.2233 26.962 22.921 26.6568 22.2252C26.5485 21.8202 26.5342 21.5921 26.6027 21.3469C26.7994 20.5512 27.749 20.3031 28.5019 20.5313C28.9867 20.6938 29.4458 21.0674 29.7224 21.6634C31.0171 20.825 31.0143 20.8307 31.9183 20.2547C31.5875 19.7414 31.4106 19.5046 31.1939 19.2851C30.4154 18.4153 29.3546 17.9676 27.6578 18.0018C27.3641 18.0389 27.0675 18.0788 26.7738 18.1159C25.9268 18.3298 25.1198 18.7746 24.6464 19.3706C23.2262 20.9819 23.6312 23.8022 25.3593 24.9629C27.0618 26.2404 29.5627 26.5313 29.8821 27.7262C30.193 29.1891 28.8071 29.6624 27.4297 29.4942C26.4144 29.2832 25.8498 28.767 25.2395 27.8288C24.116 28.479 24.116 28.479 22.9611 29.1435C23.2348 29.7423 23.5228 30.0132 23.982 30.5322C26.155 32.7366 31.5932 32.6283 32.5685 29.2917C32.6084 29.1777 32.8708 28.4134 32.6597 27.2356ZM21.424 18.1786H18.6179C18.6179 20.6026 18.6065 23.0094 18.6065 25.4334C18.6065 26.9761 18.6863 28.3906 18.4354 28.824C18.0247 29.6767 16.9611 29.5712 16.4763 29.4058C15.9829 29.1634 15.732 28.8183 15.4411 28.3307C15.3612 28.191 15.3014 28.0826 15.2814 28.074C14.52 28.5389 13.7614 29.0065 13 29.4714C13.3793 30.2499 13.9382 30.9258 14.654 31.3649C15.7234 32.0065 17.1606 32.2033 18.6635 31.8582C19.6417 31.5731 20.4857 30.9828 20.9278 30.0845C21.5665 28.9067 21.4297 27.4809 21.424 25.9039C21.4382 23.3316 21.424 20.7594 21.424 18.1786Z" fill="#323330"/>
</g>
</svg>
